<?xml version="1.0" encoding="UTF-8" standalone="no"?>
<!-- Created with Inkscape (http://www.inkscape.org/) -->

<svg
   width="290.07489mm"
   height="163.95537mm"
   viewBox="0 0 290.07489 163.95537"
   version="1.1"
   id="svg5"
   xml:space="preserve"
   xmlns="http://www.w3.org/2000/svg"
   xmlns:svg="http://www.w3.org/2000/svg"><defs
     id="defs2" /><g
     id="layer1"
     transform="translate(37.412788,-79.321664)"><g
       id="g1055"
       transform="matrix(0.74187949,0,0,0.74187949,-37.412788,79.321664)"
       style="stroke-width:0.356639">
	<rect
   x="1.7"
   y="1.7"
   width="387.5"
   height="217.60001"
   id="rect1051"
   style="stroke-width:0.356639" />
	<path
   class="st0"
   d="M 391,221 H 0 V 0 H 391 Z M 3.5,217.6 H 387.6 V 3.4 H 3.5 Z"
   id="path1053"
   style="stroke-width:0.356639" />
</g><g
       id="g1073"
       transform="matrix(0.74187949,0,0,0.74187949,-37.412788,79.321664)"
       style="stroke-width:0.356639">
	<path
   class="st0"
   d="m 77.6,143.6 c 0.4,-2.3 0,-4.8 -0.4,-6.9 -0.2,-1.3 -0.5,-3 -0.3,-3.4 2.8,-3.6 2.4,-8.1 1.9,-13 -0.2,-2.1 -0.4,-4.3 -0.4,-6.6 0,-1.8 0,-4.5 0,-5.4 0.3,-0.4 0.4,-0.7 0.4,-1.1 0,-0.8 -0.8,-1.4 -1.5,-2 -0.5,-0.4 -1.1,-0.8 -1.3,-1.3 -2.3,-5.1 0,-14.7 0,-14.8 l 0.1,-0.5 -0.4,-0.3 c -0.9,-0.6 -1.1,-0.9 -1.1,-0.8 0,-0.6 -0.2,-1.1 -2.3,-3.2 L 71.9,84 71.4,84.7 C 71.3,84.7 71,84.4 70.9,83.8 70.7,83.3 70.8,83 70.8,83 L 71,82.8 c 0.2,-0.3 1.9,-3 1.2,-4.7 -0.2,-0.5 -0.6,-1 -1.7,-1.3 -3.2,-0.3 -5.2,-1.8 -5.6,-2.4 1.5,-1.7 5.6,-6.8 7.4,-10.1 L 77,55.5 c 1.8,-1.8 1.4,-4.8 1,-8.3 -0.2,-1.7 -0.5,-3.7 -0.5,-5.7 0,-3.9 -2.6,-10.9 -6.7,-13.7 -1.6,-1 -3.3,-1 -4.1,-1 -0.2,-0.2 -0.4,-0.3 -0.7,-0.5 -0.9,-0.6 -2.2,-1.5 -2.6,-3 L 63.3,22.9 62.8,23 C 58.5,22.3 55.9,22.4 52.6,22.7 50.5,22.9 48,23.1 44,23.1 l -6.8,-0.2 c -0.1,0 -8.8,0.4 -10.9,1.6 h -6.9 l -0.2,0.3 c -0.4,0.7 -0.7,1 -0.8,1.1 -0.5,0.5 -0.5,0.7 -0.5,2.4 0,0.5 0,0.8 0,1 0,0.7 0,1 0.5,1.3 0.1,0.1 0.3,0.2 0.9,1.1 l 4.2,4 c 0.1,0.1 0.2,0.2 0.4,0.4 h -0.6 l 0.8,0.6 c 0,0 0,0.1 0,0.1 0.1,0.6 0.7,0.7 1,0.7 0.2,0.2 0.4,0.3 0.6,0.3 h 0.5 l 0.1,-0.3 h 0.9 c 0.2,0.3 0.4,0.5 0.6,0.6 0,0 0,0.1 0,0.1 0,0.3 0,0.6 0,1.3 0,0.6 0,1 0.1,1.3 0,0.2 0,0.3 0,0.4 -0.1,0.1 -0.5,0.4 -0.9,0.7 l -0.4,0.3 v 32.7 l 1.4,2.3 c 0.2,2 0.2,4.3 0,4.7 -0.1,0.2 -1.1,1.6 -1.3,3 l -0.1,9.4 1,2.1 0.3,6.3 c -0.1,0.3 -0.5,0.9 -1.4,1 l -0.7,0.1 v 0.7 c 0.1,2.2 0,6 -0.1,10.5 -0.1,4 -0.3,8.6 -0.3,13.3 0.4,3.3 0.7,7.7 0.9,10.3 0.1,1.3 0.2,2.2 0.2,2.5 0.6,4.6 0.5,7.5 0.3,11.6 -0.1,2.6 -0.3,5.7 -0.3,9.9 -0.9,5 -2.5,10.9 -2.9,11.5 -0.7,0.7 -3,1.6 -3.8,2 l -1.3,0.5 1.2,0.8 c 0.2,0.1 0.7,0.6 1.2,1 l 1,0.9 0.3,-0.6 c 0.2,0 1.2,0 2.2,0.1 1.6,0.2 3.2,0.3 3.9,-0.1 1,0.2 4.7,0.7 7.7,0.7 2.9,0 4.4,-0.5 4.9,-1.6 0.7,-0.6 1.2,-1 1.7,-1 0.4,0 0.8,0.3 1.2,0.9 0.4,0.5 0.9,1 1.6,1 0.5,0 1,-0.3 1.4,-0.8 0.6,-0.4 4.8,-1.2 8.4,-1.8 l 0.4,-0.1 0.1,-0.4 c 0.6,-1.5 2.5,-2.9 4.5,-4.4 0.4,-0.3 0.9,-0.6 1.3,-0.9 2.9,-2.2 8.2,-4.6 8.2,-4.6 l 0.4,-0.2 v -0.4 c 0,-0.1 0.5,-5.5 1.8,-8.7 1,-2.6 3.6,-6.4 3.7,-6.5 -0.1,0 1.5,-3.7 2,-6.3 z M 60.8,133.4 c 0.2,1 -1.9,8.8 -2.4,9.1 -0.8,4.1 0.2,9.3 -1.9,11.2 -1.7,1.2 -4.3,5.9 -7,6.1 l -2.9,2.6 c -1.7,0.7 -4.6,1 -4.6,1 0,0 3.4,-6 2.7,-5.2 -0.1,1.7 -0.3,-5 -0.3,-5 0,-18.4 -0.4,-7.2 0.3,-11.7 0.1,-0.9 0.7,-1.1 1.3,-1.7 v -23.6 c -0.9,-0.4 -1.4,-1.1 -1.3,-2.1 0.1,-0.8 0.5,-1.4 1.3,-1.7 l 1.3,-6.2 c 0,0 -1.8,-7.1 0,-9.3 0.3,-3.3 0,-13.6 0,-13.6 l 4,4.2 c 0,0 2.8,2.7 5.2,4 0,0 3.3,2.9 1.9,4.2 -1,0.7 2.2,3 0,3.1 0,0 2.2,2.4 1,4.9 1.7,0.9 -0.6,5.2 -0.6,6.8 0,5.4 2.1,1.6 2.1,8.1 -4.3,3.1 2.2,9.1 -0.5,11 1.8,0.9 -0.2,2.7 0.4,3.8 z M 59.7,45.5 c -0.4,0.2 1.3,4.8 1.3,4.8 -1.7,0.9 -1.3,9.4 -1.3,11 -7.6,0.6 -5.8,6.9 -9.3,8 -0.2,0.1 -0.8,-1 -3.2,0 V 43.7 c 2.1,-1.1 0.8,-1.1 1.7,-3.6 -0.4,0.1 -0.5,0.1 0.2,-0.6 -0.1,0.2 -0.2,0.4 -0.2,0.6 0.4,-0.2 1.2,-0.6 1.2,-0.6 0.2,0.5 0.2,0.9 0,1.4 l 4.8,-0.7 h 1 c 1.9,4.2 3.4,1.9 6.4,3.5 z"
   id="path1057"
   style="stroke-width:0.356639" />
	<path
   class="st0"
   d="m 178.8,175.3 v -16.5 h -0.7 c -0.1,0 -11.9,-0.4 -23.2,-0.4 -20.3,0 -21.1,1.2 -21.6,1.8 -0.1,0.1 -0.1,0.2 -0.1,0.3 -1.8,1.1 -3.8,1.6 -6,1.6 -2.6,0 -5.1,-0.7 -7,-1.3 -1.8,-0.5 -3.1,-0.9 -4,-0.6 l -1,0.6 c -1.3,0.8 -1.8,1.1 -2.7,2.5 -2.5,0.4 -4.7,0.3 -6.9,0.1 -0.9,-0.1 -1.8,-0.1 -2.9,-0.2 -0.1,-2.4 -0.7,-3 -1.4,-3.6 0,0 0,-0.1 0.1,-0.4 l 0.1,-0.2 c 0.2,-0.7 0.3,-1 0.9,-1.5 l 0.3,-0.2 v -8.7 c 0.3,-0.3 0.6,-0.5 1,-0.8 l 0.3,-0.2 v -6 c 0.2,-0.2 0.3,-0.3 0.4,-0.4 0.8,-0.7 0.9,-0.9 0.9,-2.4 v -0.2 c 0,-1 0,-1.2 -0.5,-1.8 -0.2,-0.2 -0.4,-0.4 -0.7,-0.9 0.1,-0.3 0.2,-0.6 0.3,-1 0.4,-1.4 0.6,-1.9 1.6,-2.1 l 0.6,-0.1 v -0.6 c 0,-0.6 0.2,-6.1 0,-7.4 l -0.1,-0.3 -0.2,-0.2 c -0.3,-0.2 -0.6,-0.5 -1,-0.8 v -9.1 c 0.3,-0.3 0.6,-0.5 1,-0.8 l 0.3,-0.2 V 113 c 0.2,-2.5 1.5,-24.9 -0.1,-28 -0.5,-1 -1,-1.3 -1.6,-1.7 -0.3,-0.2 -0.6,-0.4 -0.9,-0.7 V 56 c 0.3,-0.3 0.6,-0.5 1,-0.8 L 105.3,55 V 48.7 L 105,48.5 c -2.1,-1.5 -2.3,-2.3 -2.3,-2.3 0,0 0,0 0,0 V 46 c 0,-0.7 0.1,-0.9 1,-1.5 L 104,44.3 V 31.2 L 103.7,31 C 102,29.8 98.1,25 98.1,24.9 l -0.2,-0.2 c -0.4,-0.2 -1,-0.2 -1.4,-0.1 -0.2,0.1 -0.4,0.1 -0.6,0.1 -0.3,0 -1.2,0 -2.8,-2.6 L 92.9,21.8 H 82.4 c -0.2,-0.3 -0.5,-0.6 -0.7,-1 L 81.5,20.4 H 78.9 L 78.8,21 c -0.2,1.1 -0.3,1.2 -0.6,1.5 -0.1,0.2 -0.3,0.3 -0.5,0.6 l -0.5,0.6 0.6,0.4 c 4.8,3.5 5.4,5.1 5.7,5.9 0.1,0.4 0.3,0.8 0.9,1.2 0.1,0 0.2,0 0.3,0 h 0.2 c 0.1,0 0.3,0 0.6,0 1.6,0 2.2,0.3 2.4,0.7 0,0 1.9,3.5 2.2,7 0.1,1.1 -1.5,5.3 -2.1,6.1 l -0.5,0.6 0.6,0.4 c 0.4,0.3 0.7,0.5 1,0.8 0.4,1.9 0.1,6.9 0,9 -0.3,0.3 -0.6,0.6 -0.8,0.8 -0.5,0.5 -0.8,0.9 -1.5,1.3 l -0.3,0.2 v 10.8 l 0.3,0.2 c 0.4,0.3 0.6,0.5 1,0.8 v 19.4 l 0.3,0.2 c 0.4,0.3 1.2,1.3 1.3,2.4 0.1,1.3 -1,2.8 -1.3,3 l -0.3,0.2 v 13.9 0 c -0.3,0.3 -0.6,0.5 -0.9,0.7 l -0.2,0.2 v 0.3 c 0,0.2 -0.7,4.3 0,9.3 0,0.1 -0.1,0.2 -0.1,0.2 -0.2,0.3 -0.2,0.4 -0.7,0.6 l -0.4,0.2 v 17.8 l 0.3,0.2 c 1.2,0.8 2.3,1.7 2.3,3.2 0,0.3 0,0.5 0,0.7 0,0.1 0,0.3 0,0.3 -0.1,0.1 -0.6,0.5 -1,0.8 l -0.3,0.2 v 4.5 l -0.1,0.1 c -0.3,0.2 -0.5,0.5 -0.9,0.7 l -0.3,0.2 v 10.4 0.4 l 0.3,0.2 c 0.7,0.5 0.9,0.7 0.9,1.1 0,0.5 -0.4,0.8 -1,1.1 l -0.3,0.2 v 5.9 c -1.7,1.6 -2.5,2.1 -3,2.5 -0.4,0.3 -0.8,0.6 -1.4,1.2 l -3.9,2.1 -0.1,0.3 c -0.2,1.1 -0.3,1.2 -0.6,1.5 -0.1,0.2 -0.3,0.3 -0.5,0.6 l -0.5,0.6 0.6,0.4 c 0.6,0.4 0.8,0.7 1.1,1.2 l 0.4,0.6 0.6,-0.4 c 0.4,-0.3 1.5,-0.6 3.8,-0.6 3.4,0 7.5,0.7 7.5,0.7 l 0.6,0.1 0.2,-0.5 c 0.5,-1.4 5,-4.7 7.9,-6.5 h 4.6 c 0.5,0 3,0.8 3.6,1.7 l 0.2,0.3 h 5.8 c 15,0 24.6,0.1 26.7,0.2 0,0 0.1,0.1 0.1,0.1 0.4,0.6 0.9,1.5 2.9,1.7 h 12 c 1,1.2 1.9,1.5 2.8,1.3 0.1,0 0.2,0 0.3,0 0.1,0 0.4,0 1.1,1.1 l 0.2,0.3 h 4.2 v 0.1 c 0.2,0.3 0.4,0.6 0.7,1 l 0.2,0.3 H 182 l -0.7,-1.1 c -1.2,-1.1 -2.3,-3.5 -2.5,-4 z"
   id="path1059"
   style="stroke-width:0.356639" />
	<path
   class="st0"
   d="m 108.1,28.2 c 0.5,0.7 0.9,0.9 2.3,0.9 0.4,1.1 1.6,1.4 2.7,1.7 1.5,0.4 2.4,0.8 2.7,1.8 l 1.7,28 0.3,0.2 c 0.2,0.1 0.4,0.2 0.6,0.3 0.3,0.1 0.4,0.2 0.4,0.2 0,0 0,0 0,0 -0.2,0.1 -0.5,0.3 -1,0.7 l -0.3,0.2 0.4,54.6 c -1.1,1.3 -1.7,3.9 -1.7,5.5 0,1.5 0.5,2.3 0.9,3 0.2,0.4 0.4,0.8 0.4,1.2 0,0.3 0,0.6 0,0.8 0,0.6 0,0.6 -1,1.4 l -0.3,0.2 v 0.4 c 0,0.1 0.1,13.6 -1.1,17.4 l -0.6,0.4 c -2.2,1.5 -2.3,1.6 -3.1,2.7 -0.4,0.6 -1,1.4 -2.2,3 l -0.5,0.6 0.6,0.4 c 0.4,0.3 0.7,0.6 0.9,0.9 0.3,0.3 0.5,0.6 0.9,0.6 0.1,0.1 0.3,0.2 0.6,0.2 0.5,0 1.1,-0.3 3.1,-2.3 1.4,-0.5 5.8,-0.9 9.8,-0.9 4,0 4.8,0.4 4.9,0.5 l 0.3,0.2 0.4,-0.2 c 1,-0.5 1.6,-0.6 1.9,-0.6 l 0.1,0.1 h 1.2 c 0.5,0 1,0.1 1.8,0.4 l 1.1,0.4 -0.7,-5.1 -0.2,-0.2 c -2.8,-2 -4.6,-3 -5.8,-3.7 -2.1,-1.2 -2.2,-1.2 -2.8,-3.9 -0.1,-0.3 -0.2,-0.6 -0.2,-0.9 -0.4,-1.5 -0.6,-2.4 0.1,-3.3 0.3,-0.3 0.5,-0.5 0.9,-0.7 l 0.5,-0.4 0.7,-9.5 0.1,-0.3 -0.3,-0.2 c -0.4,-0.5 -1.7,-4.2 -1.7,-4.8 0.1,-2.4 -0.4,-4.2 -0.8,-5.6 -0.5,-1.9 -0.8,-2.9 0.6,-4.3 0.4,-0.4 0.7,-0.6 1.2,-0.9 l 0.3,-0.2 v -0.3 c 0,-0.1 0.4,-2.9 0,-5.4 v -0.3 l -0.3,-0.2 c -0.2,-0.3 -0.2,-1.6 -0.2,-2.2 0,-0.6 0,-1.2 -0.1,-1.6 -0.6,-2.7 -0.4,-3.9 -0.3,-4.4 0,-0.2 0,-0.3 0,-0.4 0,-0.3 0,-0.6 -0.1,-1.1 -0.2,-1.5 -0.4,-3.7 0.7,-5 0.4,-0.4 0.6,-0.6 1.2,-0.9 l 0.4,-0.3 -0.7,-4 v -0.3 l -0.3,-0.2 c -0.1,-0.2 -0.3,-1.1 -0.4,-1.6 -0.1,-0.9 -0.3,-1.8 -0.6,-2.2 0.9,-6.3 0.5,-19.5 0.2,-28.3 -0.1,-3.3 -0.2,-6.1 -0.2,-7.7 0,-0.4 0.2,-0.6 0.6,-0.9 0.6,-0.4 1.3,-1 1.3,-2.5 0,-1.6 -0.3,-2.1 -1,-2.4 -0.1,-0.1 -0.3,-0.2 -0.3,-1.7 0,-2.5 3.3,-5.1 6.3,-5.9 l 0.5,-0.1 v -2.9 l -0.2,-0.2 c -0.2,-0.2 -0.4,-0.4 -0.5,-0.6 -0.4,-0.5 -0.7,-0.8 -1,-1.4 l -0.3,-0.5 -0.5,0.2 c -1,0.4 -5.4,0.6 -11.1,0.6 -6,0 -11.5,-0.3 -12.7,-0.6 l -0.5,-0.2 -0.3,0.5 c -0.1,0.2 -0.6,0.8 -1,1.3 l -0.7,0.9 0.6,0.4 c 1,0.8 1.2,1.2 1.4,1.5 z"
   id="path1061"
   style="stroke-width:0.356639" />
	<path
   class="st0"
   d="m 185.2,117.6 v -0.7 h -3.9 l -0.2,0.2 c -0.8,0.9 -1.1,1.9 -1.3,2.8 -0.3,1.3 -0.6,2.5 -2.9,3.6 -0.2,-0.3 -0.4,-0.5 -0.6,-0.9 l -0.4,-0.8 -0.6,0.6 c -1.3,1.2 -2.1,3.9 -2.4,5.4 -4.3,0.4 -7.2,5.2 -9.2,8.3 -0.8,1.2 -1.6,2.6 -2,2.8 -2.6,1.2 -4.1,1.2 -5,1.2 -0.4,0 -0.8,0 -1.1,0.2 -1.9,0.9 -3.1,1.6 -4,2.1 -1.4,0.8 -1.8,1 -2.4,1 -0.4,0 -0.7,0 -0.9,0.1 -0.1,0 -0.2,0 -0.2,0 -0.1,-0.1 -0.3,-0.4 -0.6,-0.8 1,-1.7 2.6,-5.9 4.6,-11.6 1.1,-2.9 2.3,-6.2 2.6,-6.7 l -0.3,-0.4 0.6,-0.1 v -3.5 c 0.1,-1.5 6.5,-19.7 10.8,-21.5 l 0.5,-0.2 -0.1,-0.6 c -0.2,-1 -0.6,-3.9 0,-5.5 1,-2.7 6,-4.8 6,-4.8 l 0.4,-0.2 v -6.1 c 0.9,-1 1.6,-3.1 2.6,-5.7 1.3,-3.7 3,-8.2 5.2,-9.8 l 0.4,-0.3 -0.1,-0.5 c 0,-0.1 -1.5,-5.4 1.1,-7.6 L 182,57.4 V 34.1 c 0,-1 -0.4,-1.5 -0.8,-2 -0.3,-0.4 -0.5,-0.6 -0.5,-1.1 V 23.7 H 180 c -8.8,0 -13.7,0 -18.5,-0.1 -4.9,0 -9.8,-0.1 -18.9,-0.1 h -0.8 l 0.1,0.8 c 0.1,1 -0.8,2.4 -1.1,2.9 l -0.1,0.2 V 39.8 L 141,40 c 0.5,0.3 0.8,0.5 1.2,0.9 2,2 0.6,7.4 -0.2,9.3 l -0.2,0.5 0.5,0.3 c 0.1,0.1 0.1,0.6 0.2,0.9 0,0.3 0.1,0.6 0.1,0.9 0.3,1.7 0.7,4.3 0.7,4.3 v 0.3 l 0.2,0.2 c 1.1,0.8 1,1.1 1,1.7 -0.1,0.9 -0.1,1.8 1.2,3.1 l 0.6,0.6 0.6,-1 c 1.9,-3.1 2.5,-4.1 2.5,-5 V 46.7 c 0,-1.5 3.3,-3.1 4.4,-3.1 h 0.7 v -0.7 c 0,-5.3 3.1,-6.8 5.5,-8.1 0.8,-0.4 1.6,-0.8 2.1,-1.3 l 13.8,0.1 V 42 c -2.2,2 -3.6,4.2 -5,6.1 -1.3,1.8 -2.3,3.4 -3.7,4.4 l -0.1,0.1 -0.1,0.2 c -1.4,3 -0.5,7.1 -0.2,8.4 -4,3.7 -4.9,5.8 -5.1,6.7 -3,2.2 -3,2.3 -3.1,2.4 -2.2,3.3 -4.5,14.6 -4.9,16.3 -4.4,4.8 -4.9,8.1 -5.2,9.8 -0.1,0.3 -0.1,0.6 -0.2,0.8 -0.5,0.6 -3.2,3.8 -4.5,6.3 -0.8,1.5 -1,3.2 -1.3,4.7 -0.2,1.5 -0.4,2.9 -1.1,3.4 l -0.3,0.2 v 0.4 c 0,1.1 -0.3,2.8 -0.6,4.6 -0.5,2.9 -1.1,6.2 -0.7,9 v 0.2 l 0.1,0.1 c 0.1,0.1 1.6,2.1 0,4.3 l -0.4,0.6 0.6,0.4 c 0.6,0.4 2.2,3.7 2.3,4.3 0,0.3 0,0.5 0,0.7 0,0.1 0,0.3 0,0.3 -0.1,0.1 -0.6,0.5 -1,0.8 l -0.3,0.2 v 8.3 c -1.3,1.2 -1.9,2 -1.9,2.4 0,0.8 0.3,1.2 0.6,1.5 0.2,0.2 0.4,0.5 0.8,1 l 0.2,0.3 h 10 c 1.4,1.4 4,2 4.3,2.1 h 0.1 c 1.3,0 1.9,-0.8 2.3,-1.5 0.5,-0.7 0.9,-1.3 2.5,-1.3 0.6,0 1,0 1.2,-0.1 0.1,0 0.2,0 0.3,-0.1 0.1,0.1 0.4,0.5 0.7,1 l 0.3,0.5 h 14.9 l 0.2,-0.3 c 0.7,-1.2 3.9,-2.4 4.5,-2.4 h 0.7 v -0.7 c -0.5,-8.2 -0.6,-17.4 -0.1,-18.9 0.7,-0.7 0.9,-1.5 1.1,-2.1 0.3,-0.9 0.4,-1.4 1.5,-1.7 l 0.8,-0.2 -0.3,-0.7 c -0.7,-1.6 -0.7,-5.8 -0.6,-7.2 z"
   id="path1063"
   style="stroke-width:0.356639" />
	<path
   class="st0"
   d="m 239.8,143.6 c 0,-1.3 -0.7,-2.1 -1.3,-2.9 -0.2,-0.3 -0.5,-0.6 -0.7,-1 l -0.2,-0.3 h -6.5 c -0.4,-0.5 -0.7,-0.8 -1.1,-1.2 l -0.6,-0.6 -0.4,0.7 c -2.1,3.4 -3.7,4 -5.9,4.9 -1.4,0.5 -2.9,1.2 -4.8,2.5 -0.3,0.2 -1.2,0.5 -2.1,0.8 -1.7,0.5 -3.9,1.1 -5.1,2.4 -1,1.1 -1.2,2.3 -1.3,3.3 -0.1,1.1 -0.2,1.3 -0.4,1.3 -1.1,0 -2,0.2 -2.8,0.3 -1.6,0.3 -2.9,0.4 -4.2,-0.2 l -0.6,-0.3 -0.4,0.7 c -0.2,0.3 -0.5,0.8 -0.6,0.9 -0.2,0 -0.3,-0.1 -0.7,-0.5 v 0 c 0.6,-1.2 1,-2.1 1.1,-2.8 0.5,-1.1 1.3,-3.3 1.2,-4.6 1,-1.5 4,-6.8 4.6,-10.7 0.3,-2.3 0.1,-5.8 0,-6.6 l 3.8,-11 v -14.1 c 0.5,-2 1.3,-2.9 2.1,-3.7 0.6,-0.7 1.3,-1.3 1.7,-2.5 V 94 c 1.8,-1.9 2.5,-4.8 3.1,-7.4 0.5,-2 0.9,-3.8 1.7,-4.4 l 0.3,-0.2 0.4,-12.8 c -0.3,-1.8 0.2,-3.2 0.9,-4.8 0.4,-1 0.9,-2.1 1.2,-3.4 0.6,-3.1 1.4,-7.9 1.4,-8 0.1,-1.3 0.5,-1.6 1.1,-1.9 0.5,-0.3 1.1,-0.7 1.4,-1.7 0.4,-1.5 0.2,-3.6 0.1,-4.4 l 0.8,-0.7 c 1.8,-1.7 2.4,-2.3 3,-4.5 0.4,-1.5 0.2,-3.6 0.1,-4.4 2.4,-2.4 3.4,-5.1 4.1,-7.1 0.4,-1 0.7,-1.9 1.1,-2.4 l 0.2,-0.2 v -2 h -0.9 c -0.2,0 -0.4,0 -0.5,0 H 234 c -0.1,-0.1 -0.6,-0.8 -0.7,-1.1 l -0.2,-0.3 h -0.4 c -16.1,0 -26.2,0 -32.6,0 h -6.7 c -2.5,0 -3.5,0 -3.9,0 h -0.7 v 23.9 c -1.3,1.2 -1.9,2.2 -1.9,3.1 0,0.7 0.2,1.3 0.3,1.8 0.3,1.1 0.6,2 -0.3,4.5 l -0.2,0.5 0.5,0.3 c 0.2,0.1 0.8,0.6 1.2,1 l 0.9,0.8 0.4,-0.7 c 0.6,-1 1.1,-1 1.5,-1 h 0.7 c 1.9,0 3.1,-1.4 4.3,-8.9 1.3,-7.7 3.4,-10.8 4.1,-10.8 0.3,0 0.8,-0.1 1.4,-0.3 0.8,-0.2 2,-0.5 3,-0.5 0.8,0 1.4,0.2 1.9,0.6 0.3,0.3 0.5,0.6 0.7,1 l 0.3,0.6 h 6.8 c 0.2,0.2 0.3,0.3 0.4,0.4 0.1,0.1 0.1,0.1 0.2,0.3 0,0.1 0,0.4 -1,1.1 l -0.3,0.2 v 4.6 c -3.6,3.6 -9,15.8 -9,16.9 0,0 0.2,2.3 0,3.7 -0.3,2.3 -1.7,4.8 -2.7,6.6 -0.7,1.2 -1,1.8 -1.1,2.4 0,0.4 0,0.7 0,1.2 v 0.9 c 0,1.9 -1.7,3.6 -1.7,3.6 l -0.2,0.2 v 0.3 c 0,0.3 0,0.4 -0.1,0.6 -0.1,0.4 -0.1,0.8 0.1,1.3 0.2,0.5 0.6,0.9 0.9,1.1 0.2,0.2 0.3,0.3 0.3,0.3 l -7.6,20.3 c -0.1,0.6 -2.8,13.8 0,21.8 0.2,0.6 0.5,1 0.7,1.3 0.3,0.5 0.6,0.9 0.6,1.7 0,0.1 1,5.7 0,9 -0.2,0.6 -0.5,1.4 -0.8,2 -0.4,0.8 -0.5,1 -0.5,1.3 v 0.2 c 0.3,0.8 0.7,2.7 0.1,3.5 -0.2,0.3 -0.5,0.4 -0.8,0.7 l -0.7,0.5 0.1,0.5 c 0.2,0.7 0.6,2.9 0,4 -0.4,0.8 -1,1.2 -1.8,1.8 l -1,0.7 0.2,0.5 c 0.2,0.7 0.8,2.9 0.1,3.8 -0.3,0.3 -0.5,0.5 -0.8,0.7 l -0.6,0.4 v 5.2 c 0,0.2 0,0.5 -0.1,0.7 -0.2,1.2 -0.4,3.1 1.2,4.9 l 0.2,0.2 h 0.3 c 1.7,0 3.8,-0.9 5.5,-1.6 0.8,-0.4 1.6,-0.7 1.9,-0.8 1.2,0 2.5,0 3.8,-0.1 1.8,-0.1 3.8,-0.1 6.6,-0.1 h 0.2 c 1.7,-0.6 3.7,-1.9 4.9,-3.2 l 6.1,0.7 0.1,0.1 c 0.2,0.3 0.4,0.6 0.6,0.9 l 0.2,0.3 h 19.5 l 0.1,-0.6 c 0.1,-0.4 0.1,-0.7 0,-0.9 0.2,-0.2 0.6,-0.5 1,-0.7 l 0.3,-0.2 v -12.1 c 0,-0.6 -0.3,-1 -0.5,-1.5 -0.4,-0.6 -0.8,-1.4 -0.8,-2.7 0,-1.8 0.5,-2.3 0.8,-2.8 0.2,0.1 0.5,-0.2 0.5,-0.7 z"
   id="path1065"
   style="stroke-width:0.356639" />
	<path
   class="st0"
   d="m 270.6,105.5 -0.1,-0.1 c -0.5,-1.6 -1.9,-12.3 -1.7,-14 l 0.4,-0.1 v -7.6 l -0.3,-0.2 c -1.1,-0.8 -1.1,-1.1 -1,-1.6 0.2,-0.9 0.2,-1.8 -1.3,-3.3 V 73 l -0.3,-0.2 c -0.3,-0.2 -0.6,-0.5 -0.9,-0.7 l -0.1,-0.1 -4,-15.9 c 0,-0.1 -4.6,-11.9 -4.6,-15.2 v -3.8 c 0,-0.8 -0.3,-1.1 -0.7,-1.6 -0.6,-0.7 -1.8,-2.1 -3.8,-6.6 -0.1,-0.2 -0.2,-0.8 -0.2,-1.4 -0.3,-2.3 -0.9,-6.6 -4.2,-6.6 -0.9,0 -1.6,0.3 -2.1,0.8 -1,1 -0.9,2.6 -0.9,4.2 0,2.2 -0.1,3.3 -1.2,3.4 l -0.3,0.1 c -1.3,0.8 -1.6,1.3 -1.8,1.9 -0.1,0.3 -0.2,0.5 -0.9,0.9 l -0.3,0.2 V 38 c -1.2,1.2 -1.5,1.8 -1.9,2.7 -0.1,0.3 -0.3,0.7 -0.5,1.1 -1.3,2.4 -2.5,6.2 -2.8,7.2 -0.1,0.1 -0.2,0.1 -0.3,0.2 -0.3,0.2 -0.6,0.4 -1,0.8 -0.8,1 -0.5,2 -0.3,2.9 0.1,0.5 0.3,1.1 0.2,1.7 -1.3,1.2 -2,3 -2.9,5 l -0.6,1.3 c -1,2.2 -1.2,4.8 -1.4,7 -0.2,2.7 -0.4,5.1 -1.9,6 l -0.3,0.2 v 0.4 c 0,4 -1.4,7.1 -1.4,7.1 -0.3,0.6 -0.7,1.1 -1,1.6 -0.6,0.8 -1.1,1.6 -1.5,2.9 -0.4,1.4 -0.3,2.3 -0.1,3.3 0.2,0.9 0.3,1.9 0,3.6 -0.3,2 0.2,2.6 1.1,3 0.1,0 0.2,0.1 0.2,0.2 0,0.7 -0.1,0.9 -1,1.5 l -0.3,0.2 v 5.6 c -0.1,0 -0.1,0.1 -0.2,0.1 -0.3,0.2 -0.6,0.4 -0.9,0.8 -1.5,1.8 -0.6,5.2 -0.2,6.3 -0.3,0.7 -0.6,2.5 -1.2,7.6 v 0.4 l 0.5,0.4 c 0.3,0.2 0.8,0.5 0.8,0.7 0,0.3 -0.7,0.7 -1.3,1 -0.9,0.5 -2,1.1 -2.6,2.1 -1,1.6 -1.2,4.3 -1.2,5.2 -1.6,1.4 -2.1,2 -4.5,5.2 l -0.3,0.4 0.3,0.4 c 0.7,1.1 0.8,1.4 0.8,1.8 0.1,0.6 0.2,1.2 1,2.4 l 0.3,0.5 0.5,-0.2 c 0.1,0 7,-2.6 13,-4.6 0.4,-0.1 1.3,-0.2 3.5,-0.2 3.2,0 7.1,0.2 7.1,0.2 h 0.6 l 0.1,-0.6 c 0.2,-0.9 0.8,-1.7 1.3,-2.3 0.5,-0.7 0.9,-1.2 0.7,-1.7 -0.1,-0.2 -0.3,-0.5 -0.8,-0.6 -0.5,-0.1 -1.1,-0.7 -1.6,-1.2 -0.6,-0.6 -1.3,-1.2 -2.1,-1.5 v -6.7 l -1,-3.1 h 1.9 c 0.8,0.8 2.8,1.9 5.9,3.6 3.3,1.8 9.5,5.2 9.4,6.4 -0.4,11.2 -8.1,19.5 -8.1,19.6 l -0.2,0.2 v 0.3 c 0,3.5 2.2,5.7 4,7.5 1.3,1.3 2.4,2.4 2.4,3.6 v 3.8 l 3.8,12.6 v 8.3 l 1,-0.6 c 0.2,-0.1 0.4,-0.2 0.5,-0.3 0.2,0.2 0.4,0.3 0.7,0.3 0.8,0 1.1,-0.4 1.4,-0.7 0.2,-0.2 0.4,-0.5 0.9,-0.8 l 0.3,-0.2 V 174 c 0.3,-0.3 0.6,-0.5 1,-0.8 l 0.3,-0.2 v -4.6 c 0.9,-1.1 1.4,-2.9 1.9,-4.7 0.4,-1.6 0.9,-3.5 1.6,-4 l 0.3,-0.2 v -7.3 c 1.7,-1.9 2.9,-5.6 3.9,-8.8 0.7,-2.3 1.5,-4.9 2.2,-5.4 l 0.2,-0.1 0.1,-0.2 c 0.8,-3.2 0.7,-27.3 0.2,-31.4 z m -16.2,4.2 c -0.5,0 -1,0 -1.6,0 -2.8,-0.9 -4.8,-3.4 -8.3,-4.1 -2.9,-0.6 -5.9,-0.3 -7.7,0 0,0 0,-0.7 1.3,-1 0.6,-2.1 -0.5,-9.4 0,-12.1 1.1,-1.2 1.3,-8.6 1.3,-8.6 2.9,-0.2 1.7,-3.3 3.8,-4.8 l 0.3,-8.6 c 0,0 1.3,4.8 3.1,6.8 1.5,1.6 3.5,0.9 5.3,2.5 2.2,1.9 1.2,8.7 2.6,9.7 0.4,2.6 -0.1,20.2 -0.1,20.2 z"
   id="path1067"
   style="stroke-width:0.356639" />
	<path
   class="st0"
   d="m 323.1,136.5 -0.5,-0.1 c -0.3,-0.1 -0.8,-0.2 -1,-0.3 0,-0.9 0.4,-4 0.7,-4.5 l 0.2,-0.2 v -0.3 c 0,-0.2 -0.2,-1.2 -0.4,-2.4 -1.2,-8.7 -1.8,-12 -2.1,-12.6 l -0.4,-0.7 -0.6,0.4 c -0.2,0.2 -0.4,0.2 -0.4,0.2 -0.2,0 -0.4,-0.4 -0.8,-2.3 -0.1,-0.8 -0.2,-1.3 -0.5,-1.6 -0.3,-0.7 -0.4,-3.9 -0.5,-6.3 -0.2,-4.3 -0.3,-6.3 -0.7,-6.9 L 316,98.8 c -0.2,-0.3 -0.4,-1.6 -0.5,-2.3 -0.1,-0.9 -0.2,-1.5 -0.4,-1.9 -0.4,-0.9 -0.4,-1.3 -0.4,-1.6 0.1,-1.1 -0.5,-1.3 -2.6,-2.1 -0.1,-0.1 -0.2,-0.7 -0.2,-1.1 -0.1,-1.1 -0.2,-2.6 -1.6,-3.2 -2.5,-3 -4.3,-4.2 -6.1,-4.2 -0.5,0 -1,0.1 -1.5,0.2 -0.4,0.1 -0.8,0.2 -1.2,0.2 0.5,-0.5 0.5,-0.9 0.5,-2.3 0,-0.4 0,-0.8 0,-1.4 7.1,-0.4 12.1,-6.2 15,-17.6 0,-0.1 0.1,-3.1 0,-5.3 0.2,-0.3 0.4,-0.8 0.6,-1.5 0.1,-0.4 0.3,-1.1 0.4,-1.3 l 0.3,-0.2 v -0.3 c 0.1,-1.1 0.4,-6.9 -0.1,-8.3 L 312,30.9 311.9,30.5 h -0.4 c -0.3,-0.1 -1.1,-0.8 -1.7,-1.3 -1.8,-1.6 -4.4,-3.8 -7.2,-4.2 -0.5,-0.1 -1.1,-0.1 -1.6,-0.1 h -1.1 c -3.5,-1.1 -9,-2.8 -10,-3.2 l -0.1,-0.2 H 283 c -0.1,-0.2 -0.2,-0.3 -0.3,-0.4 -0.5,-0.7 -0.8,-1 -2,-1 -1.3,0 -1.6,0.1 -3.3,0.9 l -18.5,0.5 -0.1,1.4 4.6,1 c 0.2,0.1 0.5,0.4 1,0.7 2.3,1.6 8.3,5.9 8.6,9.4 v 0.4 l 0.3,0.2 c 1,0.5 1.7,0.4 2.4,0.2 0.1,0 0.2,-0.1 0.4,-0.1 0.5,-0.2 0.8,-0.5 1.1,-0.8 0,0 0.1,-0.1 0.1,-0.1 0.7,0.2 2.7,0.7 3.8,1 -2.7,3.6 -6.2,6.1 -8.8,7.9 -1.3,0.9 -2.3,1.6 -2.9,2.3 l -0.2,0.2 v 0.2 c -0.4,3.1 -0.4,8.9 0,11.9 v 0.3 l 0.2,0.2 c 0.8,0.6 1,0.8 1,0.9 -0.1,0.7 0.1,1.4 1.3,2.6 l 0.1,6.6 0.2,0.1 c 0.1,0.4 0.2,1.6 0.2,2.3 0.1,1.8 0.2,2.5 0.5,2.9 0.8,1.6 0.6,4.1 0.6,4.1 l -0.1,0.3 0.3,0.2 c 0.1,0.2 0.3,1.1 0.3,1.7 0.1,1 0.2,1.6 0.4,2 -0.1,1.5 0,4.2 0,4.3 v 0.3 l 0.3,0.2 c 0.1,0.1 0.3,0.7 0.5,1 0.2,0.5 0.3,0.9 0.6,1.2 l 0.6,5.2 v 0.2 l 0.3,0.2 c 0.1,0.1 0.1,0.7 0.2,1 0,0.6 0.1,1.2 0.3,1.5 0,12 0,34.6 0,35.4 v 0.4 l 0.3,0.2 c 0.4,0.3 0.7,0.5 1,0.8 0.4,2.4 0.4,4.4 0.1,5.1 -1.9,2.1 -5.7,15.2 -6.5,17.9 v 0.2 c 0,1 1.1,1.7 3,3 3.8,2.6 11,7.4 14.9,18.1 l 0.8,2.2 0.5,-2.3 c 1.6,-6.8 1.2,-9.5 1,-10.8 0,0 0,0 0,0 0.1,0 0.1,-0.1 0.2,-0.1 0.4,-0.2 0.5,-0.3 0.9,-0.9 l 0.1,-0.3 c 0.3,-1.6 -0.2,-5.5 -0.7,-9.3 -0.3,-2 -0.5,-3.9 -0.6,-5.1 1.4,-3.5 1.2,-8.8 0.9,-13.1 -0.1,-0.7 -0.5,-1.2 -0.8,-1.7 -0.1,-0.2 -0.3,-0.5 -0.4,-0.6 -0.1,-0.7 0.5,-1.3 0.6,-1.4 l 0.3,-0.2 v -0.3 c 0,-0.8 -0.5,-5.9 -1.4,-14.2 -0.8,-7.5 -2,-17.9 -1.9,-18.7 l 0.1,-0.2 v -0.2 c -0.1,-0.6 0.4,-1.3 0.8,-2 0.2,-0.3 0.3,-0.6 0.5,-0.8 1.6,-3.3 1.7,-4.3 1.4,-6.3 2,1.3 4.9,6.6 6.5,9.7 0.3,0.6 0.7,1.2 0.9,1.7 0.2,0.5 -0.3,3.3 -0.6,5.4 -0.2,1.3 -0.4,2.7 -0.6,3.8 l -0.1,0.6 0.6,0.1 c 3.1,0.7 6.5,20.1 6.4,21.8 v 0.1 0.1 c 0.3,1.7 0,14.2 -0.4,16.4 -0.3,1.8 -1.4,4.7 -2.4,7.5 -1.8,4.9 -2.4,6.9 -2,7.7 l 0.2,0.4 h 0.5 2 c 2.7,0 4.5,0.3 11.3,6.9 1,1 5.1,2.3 5.9,2.5 l 0.7,0.2 0.2,-0.8 c 1.7,-8.1 2.3,-11.9 2.6,-14 0.3,-1.7 0.4,-2.2 0.7,-2.9 1.1,-2.7 0.3,-4 -0.2,-4.8 0,-0.1 -0.1,-0.1 -0.1,-0.2 1.2,-6 0.7,-8.5 0.4,-9.9 -0.2,-1 -0.3,-1.3 0.3,-2.2 l 0.1,-0.2 v -0.2 c 0,-1.2 -1.3,-4.2 -1.8,-4.9 z M 301.4,64.1 c -0.9,2 -2.5,8 -3.8,9.7 -0.7,0.8 -2.9,2.3 -5.1,2.8 -1.3,0.3 -3.5,0 -3.5,0 V 37.8 c 0.5,0 1,0 1.6,0 3.1,0 10.9,11.1 10.9,11.1 2.1,3.8 1.3,6.9 1.3,6.9 v 2.8 c -0.4,0.2 -0.7,2 -1.1,1.8 -0.1,-0.1 -0.5,2.2 -0.3,3.7 z"
   id="path1069"
   style="stroke-width:0.356639" />
	<path
   class="st0"
   d="m 372.6,65.8 0.1,-0.2 -0.3,-0.2 c -0.2,-0.2 -0.5,-1.3 -0.7,-2 -0.3,-1.2 -0.6,-1.9 -0.8,-2.3 l 0.4,-13.2 -0.3,-0.2 c -0.7,-0.5 -0.8,-0.8 -1.4,-2.4 -0.5,-1.5 -1.4,-4 -3.5,-8.4 -0.3,-0.6 -1,-1.2 -2.1,-2.1 -1.4,-1.2 -3.2,-2.7 -4.3,-4.5 L 359.5,30 h -6 c -0.3,-0.3 -0.5,-0.6 -0.7,-1 l -0.2,-0.4 h -5.5 c -0.3,-0.3 -0.5,-0.6 -0.7,-1 l -0.2,-0.4 H 342 c -0.1,-0.1 -0.2,-0.3 -0.3,-0.4 -0.4,-0.4 -0.7,-0.8 -1,-1.3 l -0.2,-0.3 h -4.2 c -1.5,-1.6 -3.9,-2.5 -5.8,-3.3 -1.4,-0.5 -3,-1.1 -3.1,-1.7 l -0.1,-0.6 h -4.4 c -0.3,-0.3 -0.5,-0.6 -0.7,-1 L 322,18.3 h -8 l 0.9,1.1 c 0.4,0.5 9.1,8.8 11.4,10.9 v 7 l -0.1,0.1 c -0.3,0.2 -0.5,0.5 -0.9,0.7 l -0.3,0.2 v 10.1 l -0.1,0.1 c -0.3,0.2 -0.5,0.5 -0.9,0.7 l -0.3,0.2 v 26 l -0.1,0.3 0.3,0.2 c 0.1,0.2 0.3,1.4 0.4,2.1 0.2,1.2 0.3,1.9 0.5,2.3 l -0.5,9 0.3,0.2 c 0.3,0.2 0.6,0.4 0.9,0.7 -0.5,2.3 -0.1,9.3 0.1,11.5 0,1 0.4,1.5 0.8,2 0.3,0.4 0.5,0.6 0.5,1.1 v 3.8 c 0,0.8 2.9,10.3 5.7,13.4 l -2.3,23.2 v 0.2 l 2.6,6 1.5,3.7 c 0.3,0.7 0.9,0.7 1.2,0.6 0,0 0.1,0.1 0.1,0.4 0,0.5 -1.6,1.4 -4.7,2.7 l -1.3,0.5 0.2,0.6 c 0,0 1.7,4.6 1.5,7.6 -0.3,3.2 -1.8,6.4 -4,8.6 l -0.7,0.7 0.8,0.4 c 0.2,0.1 0.5,0.2 1.4,0.2 0.1,0 7.6,-0.3 8.9,-2.2 0.3,0 0.9,0.4 1.5,0.7 0.8,0.4 1.5,0.9 2.2,0.9 0.2,0 0.3,0 0.6,-0.1 1.5,-0.8 4.3,-1.6 7,-2.3 4.9,-1.3 7.5,-2.1 7.9,-3.4 0.3,-0.4 0.5,-0.5 0.7,-0.6 0.5,-0.3 0.8,-0.6 1.6,-2.2 1.3,-1.6 1.6,-2.3 2.2,-4.1 0.2,-0.5 0.3,-1 0.6,-1.7 l 1.3,-7 c 1.1,-2.8 1.1,-5.7 1.1,-8.5 0,-2.7 0,-5.2 1,-7.5 1.2,-4.4 -0.1,-22.8 -0.2,-25.2 0.2,-0.3 0.2,-0.6 0.2,-1 0,-0.6 0,-1.7 0.8,-3.9 l 0.8,-6.1 c 0.5,-0.5 1.9,-1.9 3,-4.4 1.1,-2 0.9,-4.6 0.8,-7.1 -0.1,-1.2 -0.1,-2.3 -0.1,-3.2 0.4,-0.4 0.6,-1.1 0.9,-1.8 0.2,-0.5 0.5,-1.3 0.7,-1.4 l 0.2,-0.1 0.1,-0.2 c 1,-3.3 0,-17.6 -0.1,-19.2 z m -13.1,19.8 v 0 c -1.8,1 -3.1,9.3 -3.1,9.3 0,0 -2.7,1.3 -2.4,5.9 -0.9,2.3 -0.9,28.2 -0.9,28.2 -0.5,3.1 -2.1,4.7 -3.5,9.5 0.4,7.9 -6.6,15.6 -7.1,16.2 l 0.2,-62.1 c -1.2,-0.6 -2.6,-6.5 -2.6,-8.3 0,0 -0.7,-1.6 -1,-2.2 0,0.5 -0.1,0.8 -0.1,0.7 -0.2,-1 -0.1,-1 0.1,-0.7 0.1,-3.6 -0.5,-20.3 -0.5,-20.3 l -0.4,-1.6 0.6,-5.3 c 3.5,-0.2 4.7,0.1 8,0.1 1.9,0 2,2.8 5.1,2.8 0,3.4 3,4.1 4.8,6.6 0.6,0.8 1.3,7.4 2.9,8.3 v 12.9 z"
   id="path1071"
   style="stroke-width:0.356639" />
</g><g
       id="g1107"
       transform="matrix(0.74187949,0,0,0.74187949,-37.412788,79.321664)"
       style="stroke-width:0.356639">
	<polygon
   class="st1"
   points="41.1,205.2 41.1,202.7 34.4,202.7 34.4,199.4 40.6,199.4 40.6,196.9 34.4,196.9 34.4,194 40.9,194 40.9,191.5 30.9,191.5 30.9,205.2 "
   id="polygon1081"
   style="stroke-width:0.356639" />
	<polygon
   class="st1"
   points="66.4,191.5 66.4,199.9 59.1,191.5 56,191.5 56,205.2 59.4,205.2 59.4,196.4 67,205.2 69.9,205.2 69.9,191.5 "
   id="polygon1083"
   style="stroke-width:0.356639" />
	<polygon
   class="st1"
   points="89.3,194.1 89.3,205.3 92.7,205.3 92.7,194.1 97.6,194.1 97.6,191.6 84.3,191.5 84.3,194 "
   id="polygon1085"
   style="stroke-width:0.356639" />
	<polygon
   class="st1"
   points="122.2,205.3 122.2,202.8 115.5,202.8 115.5,199.5 121.7,199.5 121.7,197 115.5,197 115.5,194.1 122,194.1 122,191.6 112.1,191.6 112.1,205.3 "
   id="polygon1087"
   style="stroke-width:0.356639" />
	<path
   class="st1"
   d="m 145.4,198.9 c 1.6,-0.7 2.4,-1.8 2.4,-3.3 0,-2.1 -1.7,-3.9 -4.5,-3.9 h -6.1 v 13.7 h 3.4 v -5.6 h 1 c 1.8,0 2.4,2.6 3.9,5.6 h 3.8 c -2.1,-4.1 -2.5,-5.8 -3.9,-6.5 z m -3.1,-1.7 h -1.8 v -3.1 h 1.7 c 1.3,0 1.9,0.5 1.9,1.6 0.1,1.1 -0.8,1.5 -1.8,1.5 z"
   id="path1089"
   style="stroke-width:0.356639" />
	<polygon
   class="st1"
   points="166,194.1 166,205.3 169.4,205.3 169.4,194.1 174.4,194.1 174.4,191.6 161.1,191.6 161.1,194.1 "
   id="polygon1091"
   style="stroke-width:0.356639" />
	<path
   class="st1"
   d="m 190.8,191.6 -5.5,13.7 h 3.6 l 1,-2.7 h 6.1 l 1.1,2.7 h 3.7 l -6.1,-13.7 z m 0,8.6 2,-5.3 2.2,5.3 z"
   id="path1093"
   style="stroke-width:0.356639" />
	<polygon
   class="st1"
   points="218.3,205.3 218.3,191.6 214.9,191.6 214.9,205.3 "
   id="polygon1095"
   style="stroke-width:0.356639" />
	<polygon
   class="st1"
   points="244.2,191.7 244.2,200 236.9,191.6 233.8,191.6 233.8,205.3 237.2,205.4 237.2,196.6 244.8,205.4 247.6,205.4 247.6,191.7 "
   id="polygon1097"
   style="stroke-width:0.356639" />
	<polygon
   class="st1"
   points="274.4,205.4 277.8,205.4 277.8,191.7 274.8,191.7 270.4,196.8 266,191.7 263,191.7 263,205.4 266.4,205.4 266.4,196.8 270.1,201.1 270.7,201.1 274.4,196.8 "
   id="polygon1099"
   style="stroke-width:0.356639" />
	<polygon
   class="st1"
   points="303.3,205.4 303.3,202.9 296.6,202.9 296.6,199.6 302.8,199.6 302.8,197.1 296.6,197.1 296.6,194.2 303.1,194.2 303.1,191.7 293.2,191.7 293.2,205.4 "
   id="polygon1101"
   style="stroke-width:0.356639" />
	<polygon
   class="st1"
   points="328.7,191.7 328.7,200.1 321.3,191.7 318.2,191.7 318.2,205.4 321.6,205.4 321.6,196.6 329.2,205.4 332.1,205.4 332.1,191.7 "
   id="polygon1103"
   style="stroke-width:0.356639" />
	<polygon
   class="st1"
   points="346.5,194.2 351.5,194.3 351.5,205.4 354.9,205.5 354.9,194.3 359.9,194.3 359.9,191.8 346.5,191.7 "
   id="polygon1105"
   style="stroke-width:0.356639" />
</g></g><style
     type="text/css"
     id="style1049">
	.st0{fill:#0668B1;}
	.st1{fill:#FFFFFF;}
</style></svg>
